<svg width="96" height="35" viewBox="0 0 96 35" fill="none" xmlns="http://www.w3.org/2000/svg">
<path d="M23.22 28H17.028L11.664 19.072L6.372 28H0.18L8.784 14.86L0.72 2.368H6.876L11.664 10.648L16.524 2.368H22.644L14.58 14.86L23.22 28ZM36.2393 19.9H25.1513V15.544H36.2393V19.9ZM51.0635 7.588L55.7435 7.3V27.064C55.7435 29.344 55.0955 31.084 53.7995 32.284C52.5275 33.508 50.6315 34.12 48.1115 34.12C46.1675 34.12 44.4635 33.736 42.9995 32.968C42.2315 32.584 41.6195 32.008 41.1635 31.24C40.7075 30.472 40.4795 29.56 40.4795 28.504L44.8355 28.288C44.8355 28.96 45.0755 29.44 45.5555 29.728C46.0355 30.016 46.8515 30.16 48.0035 30.16C49.1795 30.16 49.9715 29.872 50.3795 29.296C50.8115 28.72 51.0275 27.892 51.0275 26.812L51.2075 23.716L46.1675 26.416C43.4075 26.416 41.5475 25.48 40.5875 23.608C39.7235 21.952 39.2915 19.924 39.2915 17.524C39.2915 14.668 39.5075 12.652 39.9395 11.476C40.3955 10.18 41.0435 9.244 41.8835 8.668C42.9635 7.948 44.3795 7.588 46.1315 7.588H51.0635ZM51.0635 19.648V11.8H47.4995C46.1555 11.8 45.2315 12.256 44.7275 13.168C44.2235 14.08 43.9715 15.352 43.9715 16.984C43.9715 18.616 44.2235 19.78 44.7275 20.476C45.2555 21.148 46.1795 21.484 47.4995 21.484L51.0635 19.648ZM72.0762 18.712V16.84C72.0762 15.064 71.8122 13.708 71.2842 12.772C70.7802 11.836 69.7122 11.368 68.0802 11.368C65.4402 11.368 64.1202 13.144 64.1202 16.696V18.568C64.1202 22.384 65.4402 24.292 68.0802 24.292C69.7842 24.292 70.9002 23.656 71.4282 22.384C71.8602 21.376 72.0762 20.152 72.0762 18.712ZM76.7562 17.632C76.7562 22.072 75.9162 25.048 74.2362 26.56C72.8202 27.856 70.7682 28.504 68.0802 28.504C64.6482 28.504 62.3322 27.496 61.1322 25.48C60.0042 23.632 59.4402 21.016 59.4402 17.632C59.4402 14.464 60.0042 11.98 61.1322 10.18C62.3802 8.164 64.6482 7.156 67.9362 7.156C71.2482 7.156 73.5402 8.044 74.8122 9.82C76.1082 11.572 76.7562 14.176 76.7562 17.632ZM95.4391 28H92.3071L90.8671 25.516L85.8631 28.216C83.0791 28.216 81.2071 27.208 80.2471 25.192C79.7671 24.208 79.4311 23.152 79.2391 22.024C79.0711 20.872 78.9871 19.684 78.9871 18.46C78.9871 17.212 78.9991 16.3 79.0231 15.724C79.0471 15.124 79.1071 14.44 79.2031 13.672C79.2991 12.88 79.4311 12.22 79.5991 11.692C79.7911 11.164 80.0551 10.624 80.3911 10.072C80.7271 9.496 81.1351 9.04 81.6151 8.704C82.6951 7.96 84.0991 7.588 85.8271 7.588H90.7591V0.927999H95.4391V28ZM90.7591 21.448V11.8H87.1951C85.8751 11.8 84.9511 12.304 84.4231 13.312C83.9191 14.32 83.6671 15.832 83.6671 17.848C83.6671 19.84 83.9071 21.244 84.3871 22.06C84.8911 22.876 85.8271 23.284 87.1951 23.284L90.7591 21.448Z" fill="white"/>
</svg>
